<?xml version="1.0" encoding="UTF-8" standalone="no"?>
<!-- Created with Inkscape (http://www.inkscape.org/) -->

<svg
   width="300mm"
   height="110mm"
   viewBox="0 0 300 110"
   version="1.1"
   id="svg12"
   inkscape:version="1.2.1 (9c6d41e410, 2022-07-14)"
   sodipodi:docname="desenho 4.svg"
   xmlns:inkscape="http://www.inkscape.org/namespaces/inkscape"
   xmlns:sodipodi="http://sodipodi.sourceforge.net/DTD/sodipodi-0.dtd"
   xmlns="http://www.w3.org/2000/svg"
   xmlns:svg="http://www.w3.org/2000/svg">
  <sodipodi:namedview
     id="namedview14"
     pagecolor="#ffffff"
     bordercolor="#000000"
     borderopacity="0.25"
     inkscape:showpageshadow="2"
     inkscape:pageopacity="0.0"
     inkscape:pagecheckerboard="0"
     inkscape:deskcolor="#d1d1d1"
     inkscape:document-units="mm"
     showgrid="false"
     inkscape:zoom="0.82772563"
     inkscape:cx="556.94784"
     inkscape:cy="375.72837"
     inkscape:window-width="1600"
     inkscape:window-height="837"
     inkscape:window-x="-8"
     inkscape:window-y="-8"
     inkscape:window-maximized="1"
     inkscape:current-layer="layer1" />
  <defs
     id="defs9" />
  <g
     inkscape:label="Camada 1"
     inkscape:groupmode="layer"
     id="layer1">
    <g
       id="g500"
       transform="matrix(2.0606601,0,0,0.72854104,-2.3973826,0.61357162)"
       style="fill:#800000">
      <path
         style="fill:#800000;stroke-width:0.264583"
         d="M 2.260274,2.260274 47.917808,147.36986 67.356164,75.041095 83.630137,148.27397 146.91781,2.7123286 87.698629,113.46575 75.945205,57.410958 72.78082,43.397259 46.561644,118.43835 Z"
         id="path122" />
      <path
         style="fill:#800000;stroke-width:0.264583"
         d="M 29.835615,4.0684931 46.109588,116.63014 50.630137,115.72603 46.109588,62.383561 92.219178,60.575343 86.794519,112.10959 93.575342,110.75342 98.999999,3.6164382 90.863011,4.0684931 91.315068,51.986301 46.109588,54.246576 38.424656,4.520548 Z"
         id="path124" />
      <path
         style="fill:#800000;stroke-width:0.264583"
         d="m 78.205477,28.931507 -9.493149,3.164382"
         id="path189" />
      <path
         style="fill:#800000;stroke-width:0.264583"
         d="m 68.712328,35.712328 6.328767,-6.328767"
         id="path191" />
      <path
         style="fill:#800000;stroke-width:0.264583"
         d="m 48.369862,146.46575 21.69863,-23.9589 -10.39726,-17.17808 7.684932,-27.575347 -0.452054,-1.356164 2.260272,7.684931 -5.424657,18.9863 12.657534,19.89041 z"
         id="path195" />
      <path
         style="fill:#800000;stroke-width:0.264583"
         d="M 66.90411,30.739725 Z"
         id="path197" />
      <circle
         id="path303"
         style="fill:#800000;stroke:#000000;stroke-width:0.264583"
         cx="69.164383"
         cy="29.38356"
         r="0.060213257" />
      <circle
         id="path305"
         style="fill:#800000;stroke:#000000;stroke-width:0.264583"
         cx="69.164383"
         cy="29.38356"
         r="0.060213257" />
      <path
         style="fill:#800000;stroke-width:0.264583"
         id="path307"
         d="m 76.069157,28.965443 c 1.966595,1.111392 -2.221179,-1.255697 -2.332947,-1.311238 -0.193744,-0.09628 0.340127,0.270113 0.487399,0.428596 0.520322,0.559927 0.831908,1.228394 1.141392,1.9153 0.492302,1.37246 0.647456,2.849626 0.590936,4.30054 -0.139293,1.062014 -0.777809,1.813615 -1.666166,2.352664 -0.935112,0.536327 -1.960851,0.92101 -2.994313,1.223447 -0.927108,0.160808 -1.845374,0.346466 -2.769952,0.525073 -0.128289,-0.0013 -0.258482,0.0181 -0.384869,-0.0039 -0.212092,-0.03702 -0.75063,-0.422092 -0.561395,-0.319408 4.677505,2.538191 3.695509,2.433389 2.636578,1.245683 -0.38517,-0.599028 -0.67128,-1.275607 -0.873458,-1.958809 -0.194829,-0.812165 -0.207286,-1.651804 -0.223687,-2.482466 -0.01643,-0.760936 0.354081,-1.201341 0.831276,-1.730158 0.613354,-0.584348 1.377587,-0.930624 2.148247,-1.255596 0.924195,-0.295466 1.752555,-0.791472 2.681483,-1.077016 0.59159,-0.248674 1.214366,-0.398356 1.815807,-0.617733 0,0 -3.27528,-2.215203 -3.27528,-2.215203 v 0 c -0.604594,0.202213 -1.216316,0.382104 -1.811756,0.61136 -0.922102,0.32176 -1.775965,0.796867 -2.702996,1.107032 -0.810863,0.364048 -1.614665,0.748837 -2.247083,1.392193 -0.538175,0.594145 -0.950502,1.152186 -0.968729,1.994236 0.01109,0.856956 0.01863,1.71994 0.17576,2.565331 0.172522,0.739672 0.493384,1.418831 0.804593,2.106999 1.146802,1.624615 3.187004,3.075098 5.200774,2.899285 0.929984,-0.190455 1.869067,-0.3302 2.789378,-0.561049 1.053391,-0.341376 2.103342,-0.735613 3.050966,-1.31528 0.95895,-0.650669 1.669981,-1.500164 1.843804,-2.682465 0.08574,-1.498574 -0.08208,-3.027175 -0.519779,-4.46455 -1.234575,-3.011414 -2.549435,-3.546785 -5.973297,-5.128575 0,0 3.107314,2.455759 3.107314,2.455759 z" />
      <path
         style="fill:#800000;stroke-width:0.264583"
         id="path309"
         d="m 72.103114,26.411942 c -1.321554,0.144578 -2.657009,0.214423 -3.910899,0.686246 -0.991857,0.263335 -1.597287,0.855533 -1.943523,1.798169 -0.337526,0.847522 -0.492747,1.741017 -0.585171,2.643505 -0.01061,0.152935 -0.02125,0.305872 -0.03185,0.458806 0,0 3.513752,1.818698 3.513752,1.818698 v 0 c 0.0087,-0.149219 0.01741,-0.298439 0.02611,-0.447656 0.0777,-0.872548 0.210182,-1.73944 0.544219,-2.556089 0.288285,-0.859526 0.877737,-1.267368 1.749401,-1.503294 1.238523,-0.406929 2.54477,-0.505812 3.84053,-0.571585 0,0 -3.202567,-2.3268 -3.202567,-2.3268 z" />
    </g>
  </g>
</svg>
